<?xml version="1.0" encoding="UTF-8"?>
<svg enable-background="new 0 0 481.715 481.715" version="1.1" viewBox="0 0 481.715 481.715" xml:space="preserve" xmlns="http://www.w3.org/2000/svg" xmlns:cc="http://creativecommons.org/ns#" xmlns:dc="http://purl.org/dc/elements/1.1/" xmlns:rdf="http://www.w3.org/1999/02/22-rdf-syntax-ns#"><metadata><rdf:RDF><cc:Work rdf:about=""><dc:format>image/svg+xml</dc:format><dc:type rdf:resource="http://purl.org/dc/dcmitype/StillImage"/></cc:Work></rdf:RDF></metadata><path d="m289.03 1.7747-96.347 0.0011c-14.501 0-26.25 13.138-26.257 29.358-1e-3 7.7842 2.7568 15.24 7.6802 20.745 3.6034 4.0291 8.1682 6.7448 13.084 7.9208l-8.9997 133.87c-9.6943 3.9822-18.635 10.199-26.084 18.528-13.465 15.056-21.039 35.476-21.038 56.803 7e-3 15.556 11.277 28.157 25.19 28.165l57.91 8e-3 26.688 182.76 26.69-182.76 57.903 5.7e-4c13.903 8e-4 25.189-12.618 25.198-28.174-9e-3 -21.3-7.5741-41.726-21.048-56.791-7.4408-8.3196-16.371-14.546-26.059-18.521l-9.0063-133.9c4.9048-1.1687 9.463-3.8726 13.067-7.9028 4.9219-5.5033 7.6908-12.972 7.6802-20.762-5.1e-4 -16.214-11.75-29.352-26.251-29.352z"/></svg>
